PathFileType	4	(X/Y/Z)	RBDS027static.trc
DataRate	CameraRate	NumFrames	NumMarkers	Units	OrigDataRate	OrigDataStartFrame	OrigNumFrames
150.000000	150.000000	4	48	mm	150.000000	0	150
Frame#	Time	L.Ankle			L.Ankle.Medial			L.ASIS			L.GTR			L.Heel.Bottom			L.Heel.Lateral			L.Heel.Top			L.HF			L.Iliac.Crest			L.Knee			L.Knee.Medial			L.MT1			L.MT2			L.MT5			L.PSIS			L.Shank.Bottom.Lateral			L.Shank.Bottom.Medial			L.Shank.Top.Lateral			L.Shank.Top.Medial			L.Thigh.Bottom.Lateral			L.Thigh.Bottom.Medial			L.Thigh.Top.Lateral			L.Thigh.Top.Medial			L.TT			R.Ankle			R.Ankle.Medial			R.ASIS			R.GTR			R.Heel.Bottom			R.Heel.Lateral			R.Heel.Top			R.HF			R.Iliac.Crest			R.Knee			R.Knee.Medial			R.MT1			R.MT2			R.MT5			R.PSIS			R.Shank.Bottom.Lateral			R.Shank.Bottom.Medial			R.Shank.Top.Lateral			R.Shank.Top.Medial			R.Thigh.Bottom.Lateral			R.Thigh.Bottom.Medial			R.Thigh.Top.Lateral			R.Thigh.Top.Medial			R.TT			
		X1	Y1	Z1	X2	Y2	Z2	X3	Y3	Z3	X4	Y4	Z4	X5	Y5	Z5	X6	Y6	Z6	X7	Y7	Z7	X8	Y8	Z8	X9	Y9	Z9	X10	Y10	Z10	X11	Y11	Z11	X12	Y12	Z12	X13	Y13	Z13	X14	Y14	Z14	X15	Y15	Z15	X16	Y16	Z16	X17	Y17	Z17	X18	Y18	Z18	X19	Y19	Z19	X20	Y20	Z20	X21	Y21	Z21	X22	Y22	Z22	X23	Y23	Z23	X24	Y24	Z24	X25	Y25	Z25	X26	Y26	Z26	X27	Y27	Z27	X28	Y28	Z28	X29	Y29	Z29	X30	Y30	Z30	X31	Y31	Z31	X32	Y32	Z32	X33	Y33	Z33	X34	Y34	Z34	X35	Y35	Z35	X36	Y36	Z36	X37	Y37	Z37	X38	Y38	Z38	X39	Y39	Z39	X40	Y40	Z40	X41	Y41	Z41	X42	Y42	Z42	X43	Y43	Z43	X44	Y44	Z44	X45	Y45	Z45	X46	Y46	Z46	X47	Y47	Z47	X48	Y48	Z48	

1	0	711.5872802734375	96.30104827880859	1046.556274414063	728.4742431640625	100.8733520507813	1125.464721679688	816.8826293945313	920.373779296875	1082.585571289063	747.6369018554688	834.9768676757813	1042.75732421875	637.2739868164063	33.52331924438477	1084.018188476563	669.48193359375	55.57207489013672	1041.00927734375	649.6474609375	82.16233062744141	1086.543579101563	702.315185546875	418.165771484375	1035.983642578125	760.60546875	993.0862426757813	1059.058471679688	715.0748901367188	475.3436279296875	1045.450439453125	705.861328125	463.2682189941406	1166.490844726563	853.4095458984375	52.54383087158203	1128.122924804688	861.0235595703125	64.92893981933594	1082.510986328125	821.8092041015625	48.39052581787109	1017.514892578125	663.4642944335938	953.599365234375	1177.258422851563	695.9902954101563	161.1911163330078	1035.374755859375	660.2340698242188	155.733154296875	1077.567138671875	672.2202758789063	237.8447418212891	1027.262329101563	641.5238037109375	234.1197204589844	1071.640380859375	706.7383422851563	587.5913696289063	1026.546875	654.5189819335938	586.98486328125	1075.379516601563	703.7198486328125	697.6776733398438	1028.59814453125	656.6051025390625	697.5181884765625	1078.239501953125	761.4268188476563	397.196044921875	1086.913940429688	709.1248779296875	97.16120147705078	1405.14697265625	732.954833984375	111.3492126464844	1328.399780273438	833.3827514648438	928.5711059570313	1350.60693359375	764.3653564453125	842.189453125	1402.149658203125	640.06689453125	37.77498626708984	1369.679809570313	672.7186889648438	55.36174774169922	1410.846801757813	649.27783203125	82.94407653808594	1369.65087890625	727.1229858398438	428.0187072753906	1417.759399414063	778.3966674804688	1006.430603027344	1372.244140625	726.7510375976563	488.7852783203125	1408.984130859375	722.0352783203125	471.3114929199219	1289.276977539063	852.9910278320313	51.53915786743164	1316.720703125	860.428955078125	67.53643035888672	1366.853637695313	826.2255859375	47.53766632080078	1432.595581054688	672.189697265625	955.7966918945313	1275.28662109375	696.9830322265625	160.4072418212891	1412.58251953125	664.0589599609375	166.7248229980469	1373.837646484375	688.2570190429688	243.1934356689453	1430.894287109375	653.6419677734375	245.0531463623047	1389.644897460938	732.547119140625	574.5092163085938	1424.285278320313	672.8377075195313	575.65966796875	1380.97021484375	729.411376953125	684.2839965820313	1425.405883789063	673.8097534179688	685.7193603515625	1383.346923828125	780.0157470703125	407.7037658691406	1366.61474609375	
2	0.006666666666666667	711.5814819335938	96.30068969726563	1046.556762695313	728.4716186523438	100.8843002319336	1125.470947265625	816.8584594726563	920.37890625	1082.6552734375	747.6106567382813	834.9631958007813	1042.80029296875	637.2757568359375	33.51832580566406	1084.026123046875	669.4715576171875	55.56864547729492	1041.019897460938	649.6439208984375	82.16471862792969	1086.533325195313	702.3150634765625	418.17138671875	1036.02197265625	760.6038818359375	993.0884399414063	1059.117553710938	715.0708618164063	475.3446960449219	1045.481201171875	705.858642578125	463.25439453125	1166.521484375	853.4017333984375	52.55901718139648	1128.139526367188	861.025390625	64.89165496826172	1082.50439453125	821.8057861328125	48.39834594726563	1017.513122558594	663.433349609375	953.5797729492188	1177.325805664063	695.9927978515625	161.1925506591797	1035.39111328125	660.2345581054688	155.728271484375	1077.574462890625	672.2120361328125	237.8451080322266	1027.280395507813	641.5215454101563	234.1091156005859	1071.664428710938	706.73388671875	587.5873413085938	1026.5908203125	654.5095825195313	586.9730834960938	1075.423950195313	703.711669921875	697.6624755859375	1028.647094726563	656.5970458984375	697.506591796875	1078.2890625	761.4183349609375	397.1986694335938	1086.929565429688	709.1064453125	97.16180419921875	1405.152709960938	732.9520263671875	111.3450164794922	1328.403564453125	833.35693359375	928.6084594726563	1350.712036132813	764.355224609375	842.183837890625	1402.194946289063	640.0729370117188	37.76523590087891	1369.686279296875	672.716796875	55.35258102416992	1410.8486328125	649.2814331054688	82.94171142578125	1369.646606445313	727.110595703125	428.0005187988281	1417.773681640625	778.3811645507813	1006.428771972656	1372.281494140625	726.7382202148438	488.7777709960938	1409.014404296875	722.0209350585938	471.3069152832031	1289.301147460938	852.9818725585938	51.54220962524414	1316.724853515625	860.4293823242188	67.54285430908203	1366.8486328125	826.2300415039063	47.53699111938477	1432.5986328125	672.1655883789063	955.7813720703125	1275.349365234375	696.98291015625	160.3988342285156	1412.591430664063	664.0526733398438	166.7184448242188	1373.850219726563	688.253662109375	243.1805725097656	1430.90771484375	653.6307983398438	245.0440368652344	1389.66357421875	732.5369873046875	574.5013427734375	1424.319091796875	672.8317260742188	575.6556396484375	1381.00830078125	729.4051513671875	684.2824096679688	1425.446411132813	673.7867431640625	685.7203979492188	1383.401489257813	779.99755859375	407.7051696777344	1366.6357421875	
3	0.01333333333333333	711.5977783203125	96.2962646484375	1046.557739257813	728.4680786132813	100.8715362548828	1125.472045898438	816.8173828125	920.3816528320313	1082.707275390625	747.573974609375	834.9552001953125	1042.852783203125	637.2706909179688	33.51334381103516	1084.020629882813	669.4801635742188	55.56447601318359	1041.0205078125	649.6475219726563	82.15271759033203	1086.540649414063	702.3140869140625	418.1731262207031	1036.043579101563	760.5769653320313	993.0906372070313	1059.17822265625	715.0671997070313	475.3457641601563	1045.516235351563	705.8634643554688	463.2518310546875	1166.566162109375	853.3954467773438	52.54973220825195	1128.127685546875	861.01513671875	64.88407135009766	1082.496337890625	821.8037719726563	48.39330673217773	1017.509155273438	663.4093627929688	953.5684204101563	1177.399658203125	695.986572265625	161.1920928955078	1035.394287109375	660.2401733398438	155.7211456298828	1077.579833984375	672.2092895507813	237.8508758544922	1027.298217773438	641.5191040039063	234.1019287109375	1071.68310546875	706.7298583984375	587.5770874023438	1026.630615234375	654.5075073242188	586.966796875	1075.454223632813	703.7042846679688	697.6563110351563	1028.704833984375	656.5889892578125	697.4913330078125	1078.338012695313	761.4193725585938	397.1862182617188	1086.962524414063	709.1215209960938	97.16790008544922	1405.167236328125	732.9463500976563	111.3412170410156	1328.393432617188	833.3421630859375	928.5795288085938	1350.712036132813	764.3335571289063	842.18212890625	1402.231201171875	640.0758056640625	37.76345825195313	1369.68359375	672.7099609375	55.35776519775391	1410.84814453125	649.2728271484375	82.93693542480469	1369.651245117188	727.0961303710938	427.9999389648438	1417.813110351563	778.3660888671875	1006.435852050781	1372.335083007813	726.7259521484375	488.7754211425781	1409.051147460938	722.0146484375	471.3057250976563	1289.339233398438	852.988525390625	51.53473663330078	1316.730834960938	860.4281616210938	67.53464508056641	1366.849243164063	826.228515625	47.53606033325195	1432.597412109375	672.1505737304688	955.7674560546875	1275.414916992188	696.977294921875	160.3891448974609	1412.603271484375	664.0511474609375	166.7059173583984	1373.8505859375	688.25	243.1539001464844	1430.923095703125	653.6239624023438	245.041015625	1389.675415039063	732.5280151367188	574.4946899414063	1424.352172851563	672.814697265625	575.655029296875	1381.05419921875	729.3952026367188	684.275634765625	1425.501831054688	673.7653198242188	685.7141723632813	1383.444091796875	779.994140625	407.7015075683594	1366.656860351563	
4	0.02	711.5946655273438	96.2974853515625	1046.554443359375	728.4630126953125	100.8757629394531	1125.475952148438	816.7921752929688	920.3821411132813	1082.774658203125	747.53857421875	834.956787109375	1042.89892578125	637.2826538085938	33.51337051391602	1084.031005859375	669.4801635742188	55.5640754699707	1041.013305664063	649.6495971679688	82.15743255615234	1086.5439453125	702.3070678710938	418.1741638183594	1036.079711914063	760.5502319335938	993.1013793945313	1059.2333984375	715.0640869140625	475.3379211425781	1045.544799804688	705.860595703125	463.2483825683594	1166.604858398438	853.4002075195313	52.56116104125977	1128.120483398438	861.0219116210938	64.90096282958984	1082.494140625	821.8046264648438	48.39594650268555	1017.509521484375	663.3763427734375	953.5589599609375	1177.467041015625	695.9822387695313	161.1971130371094	1035.398071289063	660.2376708984375	155.7331848144531	1077.60693359375	672.2015380859375	237.8566131591797	1027.315795898438	641.5128784179688	234.09716796875	1071.705078125	706.7239379882813	587.5802612304688	1026.671020507813	654.5026245117188	586.9528198242188	1075.496826171875	703.7018432617188	697.6513671875	1028.753784179688	656.57373046875	697.4923706054688	1078.379516601563	761.4085083007813	397.1961364746094	1086.994384765625	709.1199340820313	97.15486145019531	1405.171264648438	732.939208984375	111.3382339477539	1328.403442382813	833.3068237304688	928.6079711914063	1350.806762695313	764.3103637695313	842.1825561523438	1402.284790039063	640.0611572265625	37.77016830444336	1369.687377929688	672.7159423828125	55.35398483276367	1410.845947265625	649.2694091796875	82.93622589111328	1369.64892578125	727.0845947265625	427.9999694824219	1417.843872070313	778.3576049804688	1006.438354492188	1372.363891601563	726.7115478515625	488.77197265625	1409.079467773438	721.979248046875	471.3161315917969	1289.36376953125	852.9894409179688	51.53989028930664	1316.72509765625	860.4306030273438	67.54421997070313	1366.85498046875	826.2333984375	47.5343132019043	1432.596313476563	672.1223754882813	955.7523803710938	1275.479125976563	696.9776611328125	160.3821868896484	1412.608520507813	664.044921875	166.7068481445313	1373.855590820313	688.2337646484375	243.1645660400391	1430.93701171875	653.612060546875	245.0356903076172	1389.693969726563	732.5152587890625	574.492431640625	1424.399658203125	672.789794921875	575.664794921875	1381.086303710938	729.3810424804688	684.2769775390625	1425.545532226563	673.7423095703125	685.7105102539063	1383.491455078125	779.9724731445313	407.7097473144531	1366.683715820313	
